<?xml version="1.0" encoding="utf-8"?>
<!-- Generator: Adobe Illustrator 27.0.0, SVG Export Plug-In . SVG Version: 6.00 Build 0)  -->
<svg version="1.1" id="Calque_2" xmlns="http://www.w3.org/2000/svg" xmlns:xlink="http://www.w3.org/1999/xlink" x="0px" y="0px"
	 viewBox="0 0 391.1 235.5" style="enable-background:new 0 0 391.1 235.5;" xml:space="preserve">
<style type="text/css">
	.st0{clip-path:url(#SVGID_00000173859949802105979860000009547506152821422487_);fill:#4D82BD;}
	.st1{clip-path:url(#SVGID_00000109745656462530762210000007429340977162338689_);fill:#4D82BD;}
	.st2{fill:#4D82BD;}
	.st3{fill:#6B9FCF;}
	.st4{fill:#010202;}
	.st5{fill:#FFFFFF;}
</style>
<g>
	<defs>
		<path id="SVGID_1_" d="M269.9,84.3c16.5,5.8,28.3,21.5,28.3,40c0,23.4-19,42.4-42.4,42.4c-10.4,0-20-3.8-27.4-10l-10.7,18.6    c11,8.4,24.7,13.5,39.6,13.5c35.9,0,64.9-29.1,64.9-64.9c0-27.2-16.7-50.5-40.5-60.2L269.9,84.3z"/>
	</defs>
	<use xlink:href="#SVGID_1_"  style="overflow:visible;fill:#4D82BD;"/>
	<clipPath id="SVGID_00000058583600562645749890000001055066468841494202_">
		<use xlink:href="#SVGID_1_"  style="overflow:visible;"/>
	</clipPath>
	
		<rect x="217.7" y="63.6" style="clip-path:url(#SVGID_00000058583600562645749890000001055066468841494202_);fill:#4D82BD;" width="104.5" height="125.1"/>
</g>
<g>
	<g>
		<defs>
			<path id="SVGID_00000023238967617736823300000017618283445872844165_" d="M33.1,113.4c-0.6,3.5-0.9,7-0.9,10.7     c0,4.3,0.4,8.6,1.2,12.7c5.7,28.9,30.6,50.9,60.8,52.2h0.1l5.9,0h0c18.3-0.9,34.6-9.3,45.9-22.2c0.1-0.2,0.3-0.3,0.4-0.4     l-12.7-22.1c-7.1,13.4-21.2,22.6-37.5,22.6h-0.2c-19.1,0-35.3-12.7-40.6-30.1l74-0.1l-13.4-23.3L55,113.4     c4.8-18.3,21.4-31.8,41.2-31.8c14.9,0,28.1,7.7,35.7,19.3l0,0.1c0.9,1.3,1.7,2.7,2.4,4.1l0,0.1l4.6,8.1l13.4,23.3l5.8,10     l11.5,20.1l2.3,3.9l10.5,18.2l2.3,4.1l2.3-4.1l11.1-19.4l1.6-2.8l3.7-6.5l12.4-21.5L248,82.6l13.4-23.4l-10.8,0     c-6,0.6-11.8,2-17.2,4.2l-40.4,70.4l-7.7,13.5l-19.5-34l-11.2-19.6l0-0.1l-2-3.5l-0.1-0.1c-9.6-15.5-25.4-26.7-44.1-30     c-3.7-0.6-7.5-1-11.3-1C64.9,59.1,38.1,82.6,33.1,113.4"/>
		</defs>
		<clipPath id="SVGID_00000163072218041980120670000003639474970870957472_">
			<use xlink:href="#SVGID_00000023238967617736823300000017618283445872844165_"  style="overflow:visible;"/>
		</clipPath>
	</g>
	<g>
		<defs>
			<path id="SVGID_00000082368504123958701140000012429180586554686616_" d="M33.1,113.4c-0.6,3.5-0.9,7-0.9,10.7     c0,4.3,0.4,8.6,1.2,12.7c5.7,28.9,30.6,50.9,60.8,52.2h0.1l5.9,0h0c18.3-0.9,34.6-9.3,45.9-22.2c0.1-0.2,0.3-0.3,0.4-0.4     l-12.7-22.1c-7.1,13.4-21.2,22.6-37.5,22.6h-0.2c-19.1,0-35.3-12.7-40.6-30.1l74-0.1l-13.4-23.3L55,113.4     c4.8-18.3,21.4-31.8,41.2-31.8c14.9,0,28.1,7.7,35.7,19.3l0,0.1c0.9,1.3,1.7,2.7,2.4,4.1l0,0.1l4.6,8.1l13.4,23.3l5.8,10     l11.5,20.1l2.3,3.9l10.5,18.2l2.3,4.1l2.3-4.1l11.1-19.4l1.6-2.8l3.7-6.5l12.4-21.5L248,82.6l13.4-23.4l-10.8,0     c-6,0.6-11.8,2-17.2,4.2l-40.4,70.4l-7.7,13.5l-19.5-34l-11.2-19.6l0-0.1l-2-3.5l-0.1-0.1c-9.6-15.5-25.4-26.7-44.1-30     c-3.7-0.6-7.5-1-11.3-1C64.9,59.1,38.1,82.6,33.1,113.4"/>
		</defs>
		<use xlink:href="#SVGID_00000082368504123958701140000012429180586554686616_"  style="overflow:visible;fill:#4D82BD;"/>
		<clipPath id="SVGID_00000124138774991660983240000014548072082826980751_">
			<use xlink:href="#SVGID_00000082368504123958701140000012429180586554686616_"  style="overflow:visible;"/>
		</clipPath>
		
			<rect x="32.2" y="59.1" style="clip-path:url(#SVGID_00000124138774991660983240000014548072082826980751_);fill:#4D82BD;" width="229.3" height="133.9"/>
	</g>
	<g>
		<defs>
			<path id="SVGID_00000167393811454651923320000014015364339293836434_" d="M33.1,113.4c-0.6,3.5-0.9,7-0.9,10.7     c0,4.3,0.4,8.6,1.2,12.7c5.7,28.9,30.6,50.9,60.8,52.2h0.1l5.9,0h0c18.3-0.9,34.6-9.3,45.9-22.2c0.1-0.2,0.3-0.3,0.4-0.4     l-12.7-22.1c-7.1,13.4-21.2,22.6-37.5,22.6h-0.2c-19.1,0-35.3-12.7-40.6-30.1l74-0.1l-13.4-23.3L55,113.4     c4.8-18.3,21.4-31.8,41.2-31.8c14.9,0,28.1,7.7,35.7,19.3l0,0.1c0.9,1.3,1.7,2.7,2.4,4.1l0,0.1l4.6,8.1l13.4,23.3l5.8,10     l11.5,20.1l2.3,3.9l10.5,18.2l2.3,4.1l2.3-4.1l11.1-19.4l1.6-2.8l3.7-6.5l12.4-21.5L248,82.6l13.4-23.4l-10.8,0     c-6,0.6-11.8,2-17.2,4.2l-40.4,70.4l-7.7,13.5l-19.5-34l-11.2-19.6l0-0.1l-2-3.5l-0.1-0.1c-9.6-15.5-25.4-26.7-44.1-30     c-3.7-0.6-7.5-1-11.3-1C64.9,59.1,38.1,82.6,33.1,113.4"/>
		</defs>
		<clipPath id="SVGID_00000090986106726375786180000007111000825799891344_">
			<use xlink:href="#SVGID_00000167393811454651923320000014015364339293836434_"  style="overflow:visible;"/>
		</clipPath>
	</g>
</g>
<rect y="-109.2" class="st2" width="71.4" height="71.4"/>
<rect x="110" y="-100" class="st3" width="86.8" height="62.2"/>
<rect x="217.7" y="-100" class="st4" width="84.1" height="62.2"/>
<rect x="339.6" y="-100" class="st5" width="103" height="75.5"/>
</svg>
