<?xml version="1.0" encoding="utf-8"?>
<!-- Generator: Adobe Illustrator 27.0.0, SVG Export Plug-In . SVG Version: 6.00 Build 0)  -->
<svg version="1.1" id="Calque_1" xmlns="http://www.w3.org/2000/svg" xmlns:xlink="http://www.w3.org/1999/xlink" x="0px" y="0px"
	 viewBox="0 0 970.5 235.5" style="enable-background:new 0 0 970.5 235.5;" xml:space="preserve">
<style type="text/css">
	.st0{fill:#FFFFFF;}
	.st1{clip-path:url(#SVGID_00000036962269807741473970000000312829308866527628_);fill:#FFFFFF;}
	.st2{clip-path:url(#SVGID_00000101786124760632538520000018227422258442379668_);fill:#FFFFFF;}
</style>
<g id="Calque_3">
	<g>
		<g>
			<path id="SVGID_00000164477878135471895630000014511943046031970432_" class="st0" d="M269.9,84.3c16.5,5.8,28.3,21.5,28.3,40
				c0,23.4-19,42.4-42.4,42.4c-10.4,0-20-3.8-27.4-10l-10.7,18.6c11,8.4,24.7,13.5,39.6,13.5c35.9,0,64.9-29.1,64.9-64.9
				c0-27.2-16.7-50.5-40.5-60.2L269.9,84.3z"/>
		</g>
		<g>
			<defs>
				<path id="SVGID_1_" d="M269.9,84.3c16.5,5.8,28.3,21.5,28.3,40c0,23.4-19,42.4-42.4,42.4c-10.4,0-20-3.8-27.4-10l-10.7,18.6
					c11,8.4,24.7,13.5,39.6,13.5c35.9,0,64.9-29.1,64.9-64.9c0-27.2-16.7-50.5-40.5-60.2L269.9,84.3z"/>
			</defs>
			<clipPath id="SVGID_00000002384137102347278030000003010899855956575394_">
				<use xlink:href="#SVGID_1_"  style="overflow:visible;"/>
			</clipPath>
			
				<rect x="217.7" y="63.6" style="clip-path:url(#SVGID_00000002384137102347278030000003010899855956575394_);fill:#FFFFFF;" width="104.5" height="125.1"/>
		</g>
	</g>
	<g>
		<g>
			<path id="SVGID_00000005236606945670929880000017774890770385683844_" class="st0" d="M33.1,113.4c-0.6,3.5-0.9,7-0.9,10.7
				c0,4.3,0.4,8.6,1.2,12.7c5.7,28.9,30.6,50.9,60.8,52.2h0.1h5.9l0,0c18.3-0.9,34.6-9.3,45.9-22.2c0.1-0.2,0.3-0.3,0.4-0.4
				l-12.7-22.1c-7.1,13.4-21.2,22.6-37.5,22.6h-0.2c-19.1,0-35.3-12.7-40.6-30.1l74-0.1l-13.4-23.3l-61.1,0
				c4.8-18.3,21.4-31.8,41.2-31.8c14.9,0,28.1,7.7,35.7,19.3v0.1c0.9,1.3,1.7,2.7,2.4,4.1v0.1l4.6,8.1l13.4,23.3l5.8,10l11.5,20.1
				l2.3,3.9l10.5,18.2l2.3,4.1l2.3-4.1l11.1-19.4l1.6-2.8l3.7-6.5l12.4-21.5l32.2-56l13.4-23.4h-10.8c-6,0.6-11.8,2-17.2,4.2
				L193,133.8l-7.7,13.5l-19.5-34l-11.2-19.6v-0.1l-2-3.5l-0.1-0.1c-9.6-15.5-25.4-26.7-44.1-30c-3.7-0.6-7.5-1-11.3-1
				C64.9,59.1,38.1,82.6,33.1,113.4"/>
		</g>
		<g>
			<defs>
				<path id="SVGID_00000096761167196522946290000012378165216083341965_" d="M33.1,113.4c-0.6,3.5-0.9,7-0.9,10.7
					c0,4.3,0.4,8.6,1.2,12.7c5.7,28.9,30.6,50.9,60.8,52.2h0.1h5.9l0,0c18.3-0.9,34.6-9.3,45.9-22.2c0.1-0.2,0.3-0.3,0.4-0.4
					l-12.7-22.1c-7.1,13.4-21.2,22.6-37.5,22.6h-0.2c-19.1,0-35.3-12.7-40.6-30.1l74-0.1l-13.4-23.3l-61.1,0
					c4.8-18.3,21.4-31.8,41.2-31.8c14.9,0,28.1,7.7,35.7,19.3v0.1c0.9,1.3,1.7,2.7,2.4,4.1v0.1l4.6,8.1l13.4,23.3l5.8,10l11.5,20.1
					l2.3,3.9l10.5,18.2l2.3,4.1l2.3-4.1l11.1-19.4l1.6-2.8l3.7-6.5l12.4-21.5l32.2-56l13.4-23.4h-10.8c-6,0.6-11.8,2-17.2,4.2
					L193,133.8l-7.7,13.5l-19.5-34l-11.2-19.6v-0.1l-2-3.5l-0.1-0.1c-9.6-15.5-25.4-26.7-44.1-30c-3.7-0.6-7.5-1-11.3-1
					C64.9,59.1,38.1,82.6,33.1,113.4"/>
			</defs>
			<clipPath id="SVGID_00000095308596486597964360000011849727573986317231_">
				<use xlink:href="#SVGID_00000096761167196522946290000012378165216083341965_"  style="overflow:visible;"/>
			</clipPath>
			
				<rect x="32.2" y="59.1" style="clip-path:url(#SVGID_00000095308596486597964360000011849727573986317231_);fill:#FFFFFF;" width="229.3" height="133.9"/>
		</g>
	</g>
	<g>
		<path class="st0" d="M397.1,90.5h51.5l-2.9,11.5h-36.6v17.1h29.5V131h-29.5v17.9h36.6l2.9,11.7h-51.5V90.5z"/>
	</g>
	<g>
		<path class="st0" d="M630.6,111.4c-1.4-1.8-2.9-3.2-4.5-4.4c-1.7-1.2-3.4-2.1-5.1-2.8c-1.7-0.7-3.4-1.2-5-1.5s-3.1-0.5-4.5-0.5
			c-3.1,0-6,0.6-8.9,1.9s-5.4,3.1-7.6,5.3c-2.2,2.2-4,4.9-5.3,7.9s-2,6.3-2,9.7c0.4,3.2,1.4,6.1,2.9,8.8s3.3,5,5.6,7
			c2.2,2,4.7,3.5,7.4,4.6s5.5,1.6,8.3,1.6c1.4,0,2.8-0.1,4.3-0.4c1.5-0.2,3.1-0.7,4.8-1.3s3.4-1.6,5.1-2.8c1.8-1.2,3.5-2.7,5.3-4.6
			l5.1,10.5c-4.3,3.8-8.5,6.5-12.4,7.9h0.2c-4.6,1.6-9,2.3-13.3,2.2c-2.2-0.1-4.4-0.4-6.7-0.9s-4.4-1.1-6.4-1.8
			c-3-1.3-5.8-3.1-8.4-5.2c-2.6-2.1-4.9-4.6-6.9-7.3c-2-2.8-3.6-5.8-4.7-9.2c-1.2-3.4-1.7-6.9-1.7-10.8c0-3.8,0.6-7.4,1.7-10.7
			c1.1-3.3,2.7-6.3,4.6-9.1c2-2.7,4.3-5.1,6.9-7.2c2.6-2.1,5.5-3.8,8.6-5c7.3-2.7,14.3-3.4,21-2s12.6,4.8,17.7,10.3L630.6,111.4z"/>
		<path class="st0" d="M726,90.5c4.8,0,9.3,0.9,13.5,2.8s7.9,4.4,11.1,7.6c3.2,3.2,5.7,6.9,7.5,11.2c1.8,4.3,2.8,8.8,2.8,13.7
			c0,4.8-0.9,9.3-2.8,13.5c-1.8,4.2-4.3,7.9-7.5,11.1c-3.2,3.2-6.8,5.7-11.1,7.5c-4.2,1.8-8.7,2.8-13.5,2.8s-9.3-0.9-13.6-2.8
			c-4.2-1.8-7.9-4.3-11-7.5s-5.6-6.9-7.4-11.1c-1.8-4.2-2.8-8.7-2.8-13.5s0.9-9.4,2.8-13.7c1.8-4.3,4.3-8,7.4-11.2
			c3.1-3.2,6.8-5.7,11-7.6C716.7,91.5,721.2,90.5,726,90.5z M726,149.4c3.2,0,6.2-0.6,9.1-1.9c2.9-1.3,5.3-3,7.4-5.1
			c2.1-2.2,3.8-4.7,5-7.5c1.2-2.9,1.8-5.9,1.8-9.1c0-3.2-0.6-6.2-1.8-9.2c-1.2-2.9-2.9-5.5-5-7.7s-4.6-4-7.4-5.3
			c-2.9-1.3-5.9-2-9.1-2c-3.2,0-6.2,0.7-9,2s-5.3,3.1-7.4,5.3c-2.1,2.2-3.8,4.8-5,7.7c-1.2,2.9-1.8,6-1.8,9.2c0,3.2,0.6,6.2,1.8,9.1
			s2.9,5.4,5,7.5c2.1,2.2,4.6,3.9,7.4,5.1C719.8,148.8,722.8,149.4,726,149.4z"/>
		<path class="st0" d="M854.9,131.8l32-41.3v69.8h-12v-37l-20.2,25.9L834.8,124v36.3h-12V90.6L854.9,131.8z"/>
	</g>
	<rect x="492.3" y="119.1" class="st0" width="36.9" height="12.5"/>
</g>
</svg>
