<?xml version="1.0" encoding="UTF-8" standalone="no"?>
<svg
   xmlns:dc="http://purl.org/dc/elements/1.1/"
   xmlns:cc="http://creativecommons.org/ns#"
   xmlns:rdf="http://www.w3.org/1999/02/22-rdf-syntax-ns#"
   xmlns:svg="http://www.w3.org/2000/svg"
   xmlns="http://www.w3.org/2000/svg"
   viewBox="0 0 1293.9467 314.01999"
   height="314.01999"
   width="1293.9467"
   xml:space="preserve"
   id="svg2"
   version="1.1"><metadata
     id="metadata8"><rdf:RDF><cc:Work
         rdf:about=""><dc:format>image/svg+xml</dc:format><dc:type
           rdf:resource="http://purl.org/dc/dcmitype/StillImage" /></cc:Work></rdf:RDF></metadata><defs
     id="defs6"><clipPath
       id="clipPath18"
       clipPathUnits="userSpaceOnUse"><path
         id="path16"
         d="M 0,235.515 H 970.46 V 0 H 0 Z" /></clipPath><clipPath
       id="clipPath30"
       clipPathUnits="userSpaceOnUse"><path
         id="path28"
         d="m 269.853,151.241 c 16.489,-5.81 28.299,-21.53 28.299,-40.01 v 0 c 0,-23.43 -18.98,-42.41 -42.41,-42.41 v 0 c -10.449,0 -20.019,3.78 -27.41,10.05 v 0 l -10.669,-18.6 c 10.95,-8.45 24.689,-13.47 39.58,-13.47 v 0 c 35.859,0 64.929,29.069 64.929,64.92 v 0 c 0,27.21 -16.74,50.51 -40.48,60.17 v 0 z" /></clipPath><clipPath
       id="clipPath40"
       clipPathUnits="userSpaceOnUse"><path
         id="path38"
         d="M 0,235.515 H 970.46 V 0 H 0 Z" /></clipPath><clipPath
       id="clipPath52"
       clipPathUnits="userSpaceOnUse"><path
         id="path50"
         d="m 33.063,122.121 c -0.581,-3.47 -0.881,-7.04 -0.881,-10.67 v 0 c 0,-4.34 0.421,-8.57 1.241,-12.67 v 0 c 5.709,-28.9 30.59,-50.91 60.83,-52.25 v 0 h 0.119 l 5.851,0.01 h 0.029 c 18.311,0.86 34.64,9.3 45.921,22.24 v 0 c 0.129,0.15 0.259,0.29 0.39,0.44 v 0 l -12.7,22.13 c -7.141,-13.43 -21.25,-22.58 -37.511,-22.63 v 0 h -0.219 c -19.13,0.04 -35.301,12.7 -40.631,30.09 v 0 l 74.041,0.08 -13.381,23.32 -61.139,-0.07 c 4.79,18.28 21.42,31.77 41.21,31.77 v 0 c 14.93,0 28.07,-7.68 35.669,-19.31 v 0 l 0.03,-0.06 c 0.87,-1.33 1.661,-2.71 2.381,-4.13 v 0 l 0.039,-0.07 4.641,-8.1 13.379,-23.32 5.76,-10.04 11.52,-20.08 2.261,-3.94 10.45,-18.23 2.34,-4.07 2.33,4.08 11.1,19.35 1.639,2.85 3.71,6.47 12.351,21.53 32.189,56.1 13.42,23.39 -10.759,-0.01 c -6.02,-0.6 -11.8,-2.03 -17.221,-4.16 v 0 l -40.379,-70.4 -7.73,-13.48 -19.501,33.99 -11.219,19.55 -0.041,0.07 -1.99,3.48 -0.06,0.11 c -9.56,15.51 -25.449,26.7 -44.069,29.97 v 0 c -3.67,0.64 -7.45,0.98 -11.311,0.98 v 0 c -32.249,0 -59.02,-23.5 -64.099,-54.31" /></clipPath><clipPath
       id="clipPath62"
       clipPathUnits="userSpaceOnUse"><path
         id="path60"
         d="M 0,235.515 H 970.46 V 0 H 0 Z" /></clipPath></defs><g
     transform="matrix(1.3333333,0,0,-1.3333333,0,314.02)"
     id="g10"><g
       id="g12"><g
         clip-path="url(#clipPath18)"
         id="g14"><g
           transform="translate(269.853,151.241)"
           id="g20"><path
             id="path22"
             style="fill:#5180c1;fill-opacity:1;fill-rule:nonzero;stroke:none"
             d="m 0,0 c 16.489,-5.81 28.299,-21.53 28.299,-40.01 0,-23.43 -18.98,-42.41 -42.41,-42.41 -10.449,0 -20.019,3.78 -27.41,10.05 l -10.669,-18.6 c 10.95,-8.45 24.689,-13.47 39.58,-13.47 35.859,0 64.929,29.069 64.929,64.92 0,27.21 -16.74,50.51 -40.48,60.17 z" /></g></g></g><g
       id="g24"><g
         clip-path="url(#clipPath30)"
         id="g26"><path
           id="path32"
           style="fill:#5180c1;fill-opacity:1;fill-rule:nonzero;stroke:none"
           d="M 217.663,171.891 H 322.172 V 46.801 H 217.663 Z" /></g></g><g
       id="g34"><g
         clip-path="url(#clipPath40)"
         id="g36"><g
           transform="translate(33.063,122.121)"
           id="g42"><path
             id="path44"
             style="fill:#5180c1;fill-opacity:1;fill-rule:nonzero;stroke:none"
             d="m 0,0 c -0.581,-3.47 -0.881,-7.04 -0.881,-10.67 0,-4.34 0.421,-8.57 1.241,-12.67 5.709,-28.9 30.59,-50.91 60.83,-52.25 h 0.119 l 5.851,0.01 h 0.029 c 18.311,0.86 34.64,9.3 45.921,22.24 0.129,0.15 0.259,0.29 0.39,0.44 l -12.7,22.13 C 93.659,-44.2 79.55,-53.35 63.289,-53.4 H 63.07 c -19.13,0.04 -35.301,12.7 -40.631,30.09 L 96.48,-23.23 83.099,0.09 21.96,0.02 c 4.79,18.28 21.42,31.77 41.21,31.77 14.93,0 28.07,-7.68 35.669,-19.31 l 0.03,-0.06 c 0.87,-1.33 1.661,-2.71 2.381,-4.13 l 0.039,-0.07 4.641,-8.1 13.379,-23.32 5.76,-10.04 11.52,-20.08 2.261,-3.94 10.45,-18.23 2.34,-4.07 2.33,4.08 11.1,19.35 1.639,2.85 3.71,6.47 12.351,21.53 32.189,56.1 13.42,23.39 -10.759,-0.01 c -6.02,-0.6 -11.8,-2.03 -17.221,-4.16 l -40.379,-70.4 -7.73,-13.48 -19.501,33.99 -11.219,19.55 -0.041,0.07 -1.99,3.48 -0.06,0.11 C 109.919,38.87 94.03,50.06 75.41,53.33 71.74,53.97 67.96,54.31 64.099,54.31 31.85,54.31 5.079,30.81 0,0" /></g></g></g><g
       id="g46"><g
         clip-path="url(#clipPath52)"
         id="g48"><path
           id="path54"
           style="fill:#5180c1;fill-opacity:1;fill-rule:nonzero;stroke:none"
           d="m 32.182,176.431 h 229.26 V 42.561 H 32.182 Z" /></g></g><g
       id="g56"><g
         clip-path="url(#clipPath62)"
         id="g58"><g
           transform="translate(397.1484,144.9686)"
           id="g64"><path
             id="path66"
             style="fill:#5180c1;fill-opacity:1;fill-rule:nonzero;stroke:none"
             d="M 0,0 H 51.45 L 48.596,-11.511 H 12.022 V -28.627 H 41.568 V -40.445 H 12.022 v -17.93 H 48.596 L 51.45,-70.091 H 0 Z" /></g><g
           transform="translate(630.5505,124.0836)"
           id="g68"><path
             id="path70"
             style="fill:#5180c1;fill-opacity:1;fill-rule:nonzero;stroke:none"
             d="m 0,0 c -1.36,1.766 -2.871,3.226 -4.535,4.382 -1.664,1.153 -3.36,2.088 -5.092,2.801 -1.733,0.712 -3.414,1.223 -5.043,1.529 -1.631,0.304 -3.126,0.458 -4.484,0.458 -3.056,0 -6.011,-0.646 -8.863,-1.936 -2.852,-1.29 -5.384,-3.057 -7.589,-5.298 -2.209,-2.24 -3.973,-4.874 -5.298,-7.896 -1.326,-3.022 -1.987,-6.264 -1.987,-9.729 0.408,-3.193 1.358,-6.129 2.852,-8.812 1.495,-2.683 3.345,-5.008 5.554,-6.979 2.205,-1.97 4.667,-3.497 7.385,-4.583 2.715,-1.089 5.468,-1.632 8.253,-1.632 1.357,0 2.801,0.119 4.328,0.358 1.529,0.236 3.124,0.677 4.79,1.325 1.662,0.643 3.377,1.562 5.143,2.75 1.766,1.188 3.532,2.734 5.298,4.635 l 5.095,-10.481 c -4.347,-3.836 -8.492,-6.461 -12.428,-7.875 h 0.202 c -4.552,-1.552 -9,-2.29 -13.345,-2.223 -2.175,0.135 -4.417,0.439 -6.723,0.91 -2.312,0.471 -4.449,1.074 -6.42,1.817 -2.989,1.346 -5.79,3.08 -8.404,5.201 -2.615,2.119 -4.927,4.553 -6.927,7.304 -2.005,2.75 -3.583,5.806 -4.739,9.167 -1.156,3.363 -1.732,6.944 -1.732,10.75 0,3.801 0.562,7.366 1.681,10.696 1.121,3.326 2.666,6.35 4.637,9.068 1.968,2.715 4.277,5.108 6.927,7.18 2.648,2.073 5.501,3.753 8.557,5.044 7.267,2.715 14.264,3.379 20.987,1.986 C -5.196,18.525 0.712,15.078 5.807,9.578 Z" /></g><g
           transform="translate(726.0079,86.0848)"
           id="g72"><path
             id="path74"
             style="fill:#5180c1;fill-opacity:1;fill-rule:nonzero;stroke:none"
             d="m 0,0 c 3.191,0 6.215,0.627 9.067,1.885 2.853,1.255 5.331,2.97 7.436,5.145 2.105,2.172 3.769,4.685 4.992,7.538 1.223,2.852 1.834,5.874 1.834,9.067 0,3.191 -0.611,6.248 -1.834,9.17 -1.223,2.917 -2.887,5.5 -4.992,7.742 -2.105,2.24 -4.583,4.024 -7.436,5.347 -2.852,1.325 -5.876,1.987 -9.067,1.987 -3.193,0 -6.199,-0.662 -9.016,-1.987 -2.82,-1.323 -5.283,-3.107 -7.388,-5.347 -2.105,-2.242 -3.769,-4.825 -4.992,-7.742 -1.22,-2.922 -1.833,-5.979 -1.833,-9.17 0,-3.193 0.613,-6.215 1.833,-9.067 1.223,-2.853 2.887,-5.366 4.992,-7.538 2.105,-2.175 4.568,-3.89 7.388,-5.145 C -6.199,0.627 -3.193,0 0,0 m 0,58.884 c 4.82,0 9.337,-0.933 13.549,-2.801 4.21,-1.869 7.895,-4.398 11.054,-7.59 3.159,-3.193 5.653,-6.927 7.487,-11.207 1.836,-4.279 2.752,-8.83 2.752,-13.651 0,-4.755 -0.916,-9.255 -2.752,-13.5 C 30.256,5.89 27.762,2.189 24.603,-0.968 21.444,-4.126 17.759,-6.624 13.549,-8.457 9.337,-10.29 4.82,-11.207 0,-11.207 c -4.823,0 -9.339,0.917 -13.551,2.75 -4.21,1.833 -7.879,4.331 -11.001,7.489 -3.126,3.157 -5.605,6.858 -7.438,11.103 -1.834,4.245 -2.75,8.745 -2.75,13.5 0,4.821 0.916,9.372 2.75,13.651 1.833,4.28 4.312,8.014 7.438,11.207 3.122,3.192 6.791,5.721 11.001,7.59 4.212,1.868 8.728,2.801 13.551,2.801" /></g><g
           transform="translate(854.8805,103.7091)"
           id="g76"><path
             id="path78"
             style="fill:#5180c1;fill-opacity:1;fill-rule:nonzero;stroke:none"
             d="M 0,0 31.99,41.259 V -28.525 H 19.968 V 8.455 L -0.204,-17.422 -20.07,7.742 v -36.267 h -12.02 v 69.682 z" /></g><path
           id="path80"
           style="fill:#5180c1;fill-opacity:1;fill-rule:nonzero;stroke:none"
           d="m 529.165,103.918 h -36.85 v 12.52 h 36.85 z" /></g></g></g></svg>